<?xml version="1.0" encoding="UTF-8" standalone="no"?>
<svg
   xmlns:dc="http://purl.org/dc/elements/1.1/"
   xmlns:cc="http://creativecommons.org/ns#"
   xmlns:rdf="http://www.w3.org/1999/02/22-rdf-syntax-ns#"
   xmlns:svg="http://www.w3.org/2000/svg"
   xmlns="http://www.w3.org/2000/svg"
   xmlns:xlink="http://www.w3.org/1999/xlink"
   xmlns:sodipodi="http://sodipodi.sourceforge.net/DTD/sodipodi-0.dtd"
   xmlns:inkscape="http://www.inkscape.org/namespaces/inkscape"
   version="1.1"
   id="svg2"
   viewBox="0 0 770 103"
   height="103"
   width="770"
   inkscape:version="0.91 r13725"
   sodipodi:docname="sound-wave.svg">
  <sodipodi:namedview
     pagecolor="#ffffff"
     bordercolor="#666666"
     borderopacity="1"
     objecttolerance="10"
     gridtolerance="10"
     guidetolerance="10"
     inkscape:pageopacity="0"
     inkscape:pageshadow="2"
     inkscape:window-width="1333"
     inkscape:window-height="744"
     id="namedview3390"
     showgrid="false"
     inkscape:zoom="1.0831169"
     inkscape:cx="384.07674"
     inkscape:cy="51.5"
     inkscape:window-x="33"
     inkscape:window-y="24"
     inkscape:window-maximized="1"
     inkscape:current-layer="svg2" />
  <defs
     id="defs4">
    <linearGradient
       inkscape:collect="always"
       id="linearGradient4274">
      <stop
         style="stop-color:#60dcff;stop-opacity:1;"
         offset="0"
         id="stop4276" />
      <stop
         style="stop-color:#60dcff;stop-opacity:0;"
         offset="1"
         id="stop4278" />
    </linearGradient>
    <linearGradient
       inkscape:collect="always"
       xlink:href="#linearGradient4274"
       id="linearGradient4280"
       x1="55.306131"
       y1="54.152492"
       x2="718.19715"
       y2="54.152492"
       gradientUnits="userSpaceOnUse" />
  </defs>
  <metadata
     id="metadata7">
    <rdf:RDF>
      <cc:Work
         rdf:about="">
        <dc:format>image/svg+xml</dc:format>
        <dc:type
           rdf:resource="http://purl.org/dc/dcmitype/StillImage" />
        <dc:title></dc:title>
      </cc:Work>
    </rdf:RDF>
  </metadata>
  <path
     style="fill:url(#linearGradient4280);fill-opacity:1;stroke:#0000d9;stroke-width:1.2947129;stroke-opacity:0.06122448"
     d="m 118.11238,90.038811 -0.70044,-23.201599 -0.4697,19.774098 c -0.59909,25.2211 -3.45527,26.76994 -3.88962,2.109239 -0.29538,-16.77032 -0.36012,-17.104104 -1.27833,-6.59137 l -0.96721,11.07349 -0.63332,-16.346575 -0.63331,-16.346573 -0.94511,13.182716 -0.9451,13.182728 -0.58938,-10.54618 c -0.56264,-10.067635 -0.63726,-10.259057 -1.64444,-4.218477 -0.89945,5.394355 -1.13817,4.38322 -1.6184,-6.855024 l -0.56332,-13.182728 -0.99723,8.964263 c -0.54846,4.930338 -1.2151,7.540526 -1.4814,5.800393 l -0.48418,-3.163846 -1.21335,3.163846 c -0.941166,2.454122 -1.325375,1.389523 -1.712726,-4.745774 l -0.499369,-7.909632 -0.556043,7.118667 c -0.305825,3.915272 -1.175092,7.11868 -1.931709,7.11868 -0.756618,0 -1.78253,-2.728831 -2.279805,-6.064061 -2.566439,-17.213096 -2.953639,-18.731149 -4.23668,-16.610229 -1.260475,2.0836 -1.277335,2.082902 -1.387695,-0.05749 -0.09164,-1.777078 -1.281378,-2.212516 -6.616089,-2.421348 -3.577407,-0.140064 -7.534537,0.312613 -8.793617,1.005935 -1.78091,0.980672 -3.689573,0.953957 -8.595569,-0.120346 -5.752532,-1.259667 -8.584683,-3.152563 -4.716858,-3.152563 3.026355,0 3.981921,-0.325496 5.800732,-1.975874 1.519275,-1.378583 2.456446,-1.439658 5.563136,-0.362612 2.054843,0.712376 6.820339,1.44606 10.589995,1.630396 6.602045,0.322844 6.967113,0.179706 9.934173,-3.894935 1.694138,-2.326552 3.080255,-5.090109 3.080255,-6.141242 0,-3.015004 2.89591,-2.225937 3.629939,0.989051 0.457777,2.005034 0.735665,1.497545 0.900311,-1.64417 0.142925,-2.727287 0.873706,-4.283748 1.827619,-3.892581 0.95723,0.39254 1.58947,-1.006049 1.58947,-3.51609 0,-2.731905 0.82143,-4.377024 2.3842,-4.774923 1.65402,-0.421128 2.39165,-2.151339 2.40854,-5.649574 0.0176,-3.6444952 0.45152,-4.6039407 1.56513,-3.4606062 1.1339,1.164174 1.61439,0.328674 1.81951,-3.1638573 0.26427,-4.50013507 0.32093,-4.55472937 1.09446,-1.0546192 l 0.81576,3.6911785 1.10483,-3.6911785 1.10483,-3.69115557 0.20924,3.51538187 c 0.24137,4.0553682 3.4801,4.1164672 5.17272,0.097506 0.59264,-1.4070924 1.19908,-2.0837815 1.34766,-1.5037296 0.14859,0.5800291 0.88488,0.1053937 1.6362,-1.0546192 0.89233,-1.37780627 1.51266,2.0964471 1.78888,10.0188712 l 0.42284,12.128109 0.96721,-11.073501 c 0.89398,-10.2351264 1.00026,-10.5145788 1.40382,-3.6911612 0.24014,4.0602742 0.79887,6.7861432 1.24163,6.0574882 0.44275,-0.728665 1.45917,-1.056597 2.25871,-0.728722 0.83175,0.341064 1.5738,-3.60427 1.7344,-9.2213461 l 0.28067,-9.8174572 1.02811,7.382334 c 0.56546,4.0602722 1.15442,6.5518071 1.30879,5.5367391 0.15437,-1.0150681 0.99594,-1.8455835 1.87013,-1.8455835 0.87422,0 1.58949,-1.2144581 1.58949,-2.6987894 0,-5.1659535 3.17947,-1.3830988 3.42865,4.0793049 l 0.24969,5.4744982 1.09005,-5.2730732 1.09006,-5.2730961 0.45894,6.3277031 c 0.41331,5.6985342 0.57538,5.9606912 1.62994,2.6365492 1.05329,-3.3201542 1.21602,-3.0551272 1.61895,2.636536 l 0.44798,6.327716 1.11201,-4.745776 1.112,-4.745786 0.44797,4.745786 0.44799,4.745776 1.17098,-3.691168 1.17098,-3.691167 0.20925,3.295679 c 0.31082,4.89592 2.03045,9.887049 3.40643,9.887049 0.66569,0 1.91499,-2.728818 2.77622,-6.064049 l 1.56587,-6.06406 0.31574,7.909632 c 0.18297,4.583765 0.8015,7.090617 1.47097,5.961822 1.43558,-2.42048 3.13281,-1.210628 7.91067,5.63899 1.82068,2.610175 3.33645,4.152554 3.36836,3.427501 0.0319,-0.725044 1.13094,-1.318275 2.44226,-1.318275 1.77063,0 2.38419,-1.237297 2.38419,-4.808016 0,-5.776115 3.12432,-5.407592 3.29066,0.388138 0.09,3.137143 0.37682,3.483238 1.47775,1.783342 1.36602,-2.109239 1.36602,-2.109239 1.58947,0 0.21283,2.009275 0.27916,2.015059 1.39941,0.122197 1.03326,-1.745952 1.47499,-1.577369 3.64054,1.38942 1.35553,1.857037 2.92185,3.344431 3.48073,3.305303 0.55886,-0.03921 1.19493,-0.03166 1.41348,0.01669 3.02875,0.669853 7.56096,0.355045 7.59831,-0.52779 0.0266,-0.628107 0.79725,-0.287968 1.7126,0.755894 2.43054,2.771799 20.56643,2.358525 21.69082,-0.494296 0.87707,-2.225355 2.9382,-2.532904 4.106,-0.612665 0.44093,0.725065 0.85817,0.222469 0.92718,-1.11685 0.15185,-2.947195 3.30443,-2.014442 3.30443,0.977689 0,1.160082 0.65417,1.840988 1.45372,1.513115 0.79951,-0.327863 1.81595,5.7e-5 2.2587,0.728723 0.44276,0.728665 0.86148,0.257036 0.93049,-1.048046 0.0691,-1.305095 0.6846,-2.372894 1.36795,-2.372894 0.68336,0 2.21147,-2.177481 3.3958,-4.838857 1.18761,-2.668726 2.6477,-4.308118 3.25565,-3.655445 1.51778,1.629447 6.37544,0.223818 6.56975,-1.901058 0.0926,-1.012931 0.68709,-0.637481 1.43101,0.903799 0.69993,1.450096 1.3439,2.015322 1.43104,1.256033 0.0871,-0.759278 0.87369,-1.087209 1.74791,-0.728724 0.92732,0.380263 1.58946,-0.69212 1.58946,-2.574306 0,-3.502728 2.65198,-4.353167 4.30498,-1.380503 0.56445,1.015068 1.45586,2.082866 1.98093,2.372893 0.52504,0.290003 1.74348,1.713749 2.70758,3.163846 l 1.75292,2.636536 1.63604,-3.691155 c 1.11018,-2.504681 1.68212,-2.964696 1.77941,-1.431109 0.16459,2.595682 4.91175,4.396308 4.91175,1.863072 0,-0.913492 0.76516,-1.297298 1.76716,-0.886401 0.97198,0.398575 2.39153,0.07052 3.15462,-0.728723 1.14976,-1.204433 1.41072,-1.182417 1.52347,0.128541 0.0918,1.065673 0.58184,0.893592 1.5021,-0.52731 1.13821,-1.757507 1.38466,-1.527299 1.47773,1.380516 0.0652,2.04279 0.77078,3.219504 1.7012,2.837961 0.87419,-0.358485 1.70605,0.444024 1.84855,1.78333 0.14254,1.339331 0.74117,-0.175041 1.33038,-3.365258 l 1.07132,-5.800405 0.51814,5.800405 0.51817,5.800405 1.07129,-5.800405 1.07133,-5.800405 0.30963,6.327714 c 0.26944,5.506768 0.58355,6.08826 2.42113,4.48212 2.68056,-2.342955 4.08449,-2.342955 4.37083,0 0.12394,1.015068 0.7378,-0.05281 1.36391,-2.372893 l 1.13835,-4.218466 0.4511,3.691157 0.45113,3.691178 1.13836,-4.218477 1.13835,-4.218477 0.45112,5.273085 0.45109,5.273096 1.13837,-4.218465 1.13836,-4.218477 0.38397,4.218477 c 0.34106,3.746389 0.52643,3.923421 1.6566,1.581929 1.1827,-2.450327 1.29497,-2.375855 1.58946,1.054607 0.29097,3.389355 0.41485,3.475579 1.51512,1.054619 l 1.19828,-2.636536 0.78934,3.163846 0.78937,3.163846 0.23815,-2.90018 c 0.26715,-3.253214 2.52916,-3.847417 4.12727,-1.084179 0.89971,1.555683 1.26241,1.593474 2.52992,0.263654 1.20845,-1.267852 1.51312,-1.165796 1.66241,0.556859 0.15235,1.7584 0.39444,1.67069 1.45537,-0.52731 l 1.27258,-2.636536 0.27015,2.636536 c 0.24954,2.435146 0.3745,2.475429 1.6362,0.52731 1.26074,-1.946667 1.37464,-1.958087 1.47773,-0.148271 0.0918,1.608666 1.10666,1.883889 5.64978,1.531987 3.04592,-0.235946 5.85051,0.06813 6.23239,0.67558 0.38188,0.60751 0.7508,0.375747 0.81982,-0.515033 0.11861,-1.530477 6.48336,-2.420765 6.48336,-0.906885 0,0.391989 2.5034,0.488868 5.56313,0.215291 3.54447,-0.316935 5.56314,-0.06104 5.56314,0.70546 0,0.661601 0.65417,0.934651 1.4537,0.606778 0.79954,-0.327863 1.81598,5.7e-5 2.25872,0.728723 0.55385,0.911503 0.84417,0.829875 0.9305,-0.26162 0.16767,-2.119652 12.84122,-2.47999 12.84122,-0.365105 0,0.783329 0.71527,1.424262 1.58947,1.424262 0.87421,0 1.60042,-1.06781 1.61381,-2.372893 0.0174,-1.688054 0.40937,-1.969941 1.35848,-0.976695 1.07764,1.127754 1.83697,1.062576 3.94933,-0.338984 1.91376,-1.269785 2.62173,-1.361404 2.63952,-0.341579 0.0197,1.122095 0.29179,1.113511 1.39707,-0.04401 1.15893,-1.213737 1.5069,-1.213737 2.23436,0 0.6743,1.124988 0.88895,1.137414 0.98715,0.05715 0.0691,-0.7593 0.84074,-1.087219 1.71497,-0.728745 0.90284,0.370237 1.6691,-0.627925 1.77384,-2.310652 0.10145,-1.629333 0.49975,-2.172325 0.88522,-1.20665 0.38546,0.965697 1.73301,2.018591 2.99455,2.339788 1.72581,0.439429 2.34551,-0.38696 2.50296,-3.33771 l 0.20924,-3.921718 1.17098,3.691168 1.171,3.691166 0.32093,-4.218465 c 0.25745,-3.383504 0.59135,-3.800995 1.68701,-2.10925 1.25409,1.936391 1.37718,1.893183 1.50209,-0.527309 0.0984,-1.903596 0.51755,-2.237014 1.50837,-1.199381 0.9535,0.998573 2.02687,-0.257334 3.51703,-4.115198 1.82972,-4.736813 2.30169,-5.180288 3.21333,-3.019096 0.94878,2.249279 1.08633,2.14903 1.22702,-0.894231 0.27781,-6.010015 3.33281,-3.674707 3.4491,2.636548 0.0803,4.362928 0.4949,5.472348 1.47774,3.954821 1.12098,-1.730897 1.39043,-1.447112 1.50209,1.581918 0.0922,2.502577 0.57806,3.228247 1.50878,2.253566 1.15895,-1.213739 1.5069,-1.213739 2.23436,0 0.47392,0.790677 1.01229,-0.697997 1.19638,-3.308174 l 0.33473,-4.745786 1.171,3.691167 1.17099,3.691155 0.41847,-3.691155 0.41848,-3.691167 1.17098,3.691167 c 0.68812,2.169045 1.30336,2.821374 1.49195,1.581917 0.32096,-2.109226 0.32096,-2.109226 1.687,0 1.02783,1.587027 1.39369,0.868969 1.47774,-2.900191 0.1725,-7.734716 3.25336,-5.920648 3.58215,2.109227 l 0.29146,7.118679 1.00652,-8.436941 1.00652,-8.436943 0.57797,8.436943 c 0.4453,6.500322 0.71463,7.287068 1.17329,3.427512 0.32744,-2.75519 1.2714,-5.009453 2.09771,-5.009453 0.82632,0 1.59518,-2.016945 1.70859,-4.48212 0.14996,-3.257317 0.58278,-2.323511 1.58426,3.417156 1.89335,10.853078 2.68601,11.420727 2.95974,2.119595 l 0.23276,-7.909633 2.20676,5.273085 c 1.21373,2.900202 2.23834,5.629021 2.27693,6.06406 0.13979,1.57611 3.24909,0.747092 3.24909,-0.866306 0,-3.149672 4.20456,0.914408 5.43003,5.2486 1.14652,4.055002 3.11341,4.098028 4.56283,0.0998 0.57791,-1.594137 0.80969,-1.400966 0.94903,0.790965 0.21069,3.313968 4.67502,3.988451 8.70425,1.315039 2.12579,-1.410465 2.50126,-1.35067 3.40692,0.542626 0.55979,1.170278 1.68158,1.855586 2.49285,1.522911 0.81128,-0.332675 1.47504,-0.102186 1.47504,0.512004 0,1.337455 3.49562,1.021263 5.14143,-0.46508 0.64228,-0.580028 1.18967,-0.105398 1.21644,1.054631 0.0403,1.749552 0.31141,1.839479 1.58946,0.527309 1.29689,-1.331511 1.54464,-1.270309 1.56512,0.386652 0.0179,1.446506 0.86742,1.822299 3.20328,1.417015 1.74842,-0.303378 3.17893,-0.09338 3.17893,0.466531 0,0.559979 0.71527,0.724825 1.58949,0.366339 0.87419,-0.358475 1.60041,-0.03063 1.61379,0.728734 0.0176,1.003134 0.44553,0.948071 1.56514,-0.201425 1.02719,-1.054619 1.5489,-1.1425 1.56512,-0.263643 0.0121,0.725042 1.77884,1.318263 3.92322,1.318263 5.47537,0 11.9958,-2.159694 11.9958,-3.973271 0,-0.89389 0.9469,-1.284394 2.28705,-0.943168 1.58371,0.403215 2.43911,-0.291809 2.78155,-2.260058 l 0.49454,-2.842374 2.37484,3.427512 c 2.529,3.650027 4.01813,4.241019 5.31456,2.109239 0.44093,-0.725054 0.85816,-0.250475 0.92717,1.054607 0.14633,2.767341 3.29266,3.265753 3.32876,0.527322 0.0138,-1.112347 0.48828,-1.396028 1.19211,-0.714046 0.64227,0.622358 2.4274,1.439991 3.96696,1.816972 2.26705,0.555132 3.15589,-0.199436 4.67547,-3.969145 1.03195,-2.560017 2.45452,-4.417444 3.1613,-4.127623 0.70678,0.28982 1.29599,-0.331566 1.30938,-1.380871 0.0206,-1.61757 0.25875,-1.667157 1.56513,-0.325884 1.13205,1.162275 1.54725,1.21336 1.56513,0.192588 0.0155,-0.887018 1.12535,-1.157485 3.06949,-0.748063 1.67485,0.35269 3.5267,0.124345 4.11521,-0.507466 1.70816,-1.833833 5.53156,0.904496 5.71383,4.092267 l 0.15838,2.771068 1.27259,-2.636548 c 1.18811,-2.46154 1.29807,-2.391549 1.65659,1.05462 l 0.38398,3.691166 1.13837,-4.218477 c 0.62608,-2.32015 1.23985,-3.625256 1.36389,-2.900203 0.27433,1.603225 4.99396,1.781217 4.99396,0.188326 0,-1.388837 3.96087,1.104435 4.98129,3.135611 0.59779,1.189927 1.13426,1.168334 3.08223,-0.124163 2.48026,-1.645656 4.76311,-0.82935 6.67023,2.385147 0.58814,0.991315 0.95435,1.067525 1.03545,0.215486 0.0691,-0.725055 1.57845,-1.318275 3.35429,-1.318275 1.77589,0 3.68911,-0.795823 4.25164,-1.76847 0.91517,-1.582397 1.14903,-1.554655 2.22259,0.263654 1.16409,1.971634 1.20526,1.969336 1.38322,-0.07715 0.14616,-1.680921 0.62679,-1.46675 2.36682,1.05462 l 2.18342,3.163846 0.24081,-3.163846 c 0.20482,-2.691016 0.42964,-2.848638 1.50429,-1.05462 1.26353,2.109227 1.26353,2.109227 2.08812,0 0.79046,-2.021894 0.83223,-2.017036 1.009,0.117396 0.14788,1.78764 0.96962,2.127059 4.16719,1.721478 2.19052,-0.27783 4.98201,0.04503 6.20328,0.717577 1.70085,0.936584 2.40023,0.903926 2.98848,-0.139548 0.47669,-0.845536 1.40149,-0.362167 2.43803,1.274253 1.43733,2.269169 1.68746,2.342647 1.79512,0.52731 0.0693,-1.165168 0.64777,-1.637198 1.29284,-1.054619 0.64228,0.580051 2.95592,1.018714 5.14146,0.974842 2.1855,-0.04389 5.22537,0.622895 6.75523,1.481726 2.33298,1.309688 2.7855,1.322548 2.8059,0.07967 0.0208,-1.265235 0.22959,-1.266664 1.42906,-0.01029 0.81269,0.851606 2.53756,1.183515 4.09276,0.787547 1.47842,-0.376422 3.51758,-0.343192 4.53144,0.07372 1.01389,0.417035 11.09187,0.899569 22.39552,1.072303 19.23773,0.293981 23.1693,0.629754 21.36801,1.824916 -0.40182,0.266616 -11.42876,0.723224 -24.50429,1.014702 -28.61715,0.637904 -27.74145,0.554939 -27.77171,2.63113 -0.02,1.374388 -0.27276,1.409504 -1.4285,0.198464 -1.1282,-1.182211 -1.55572,-1.078578 -2.17547,0.527309 -0.74197,1.922572 -0.77834,1.92072 -0.95572,-0.04858 -0.18252,-2.026456 -0.20796,-2.026456 -2.51803,0 -2.11156,1.852328 -2.33846,1.871509 -2.3842,0.201573 -0.0747,-2.730476 -3.20291,-2.24361 -3.3879,0.527309 -0.15203,2.276462 -0.21019,2.265751 -1.43106,-0.263654 -1.25541,-2.600987 -1.27622,-2.593876 -1.54274,0.527297 -0.23496,2.75167 -0.44813,2.889069 -1.63618,1.05462 -1.25917,-1.94421 -1.38352,-1.902945 -1.58947,0.52731 -0.20596,2.430265 -0.33031,2.47153 -1.58947,0.527309 -1.36604,-2.109239 -1.36604,-2.109239 -1.63619,0 -0.22948,1.791732 -0.46172,1.712356 -1.54274,-0.527309 -1.25848,-2.607251 -1.27621,-2.601387 -1.59769,0.527309 -0.31891,3.103617 -0.36502,3.083533 -2.42049,-1.054619 l -2.09539,-4.218466 -0.12223,3.427512 c -0.14857,4.171177 -2.83398,4.548557 -3.75209,0.527311 -0.50155,-2.196777 -0.72582,-1.87703 -0.92465,1.318262 -0.19582,3.146848 -0.65391,3.81661 -1.80328,2.636547 -1.28543,-1.319748 -1.54483,-1.242646 -1.56515,0.465229 -0.0235,1.97129 -0.10329,1.975416 -2.15765,0.111342 -2.03694,-1.848315 -2.25238,-1.822996 -4.76839,0.560402 l -2.63501,2.496188 -0.15838,-3.662167 c -0.14599,-3.373558 -0.25871,-3.454387 -1.43102,-1.025619 l -1.27261,2.636548 -0.15854,-2.900203 c -0.18917,-3.462846 -3.28857,-3.936703 -3.44909,-0.527309 -0.10674,2.264161 -0.17431,2.276244 -1.47775,0.263654 -1.25917,-1.94421 -1.38351,-1.902956 -1.58947,0.52731 -0.20595,2.430265 -0.3303,2.471519 -1.58946,0.527321 -1.36604,-2.10925 -1.36604,-2.10925 -1.5021,0 -0.11311,1.754548 -0.39516,1.843218 -1.67685,0.527297 -1.22719,-1.259953 -1.56848,-1.045313 -1.67683,1.05462 -0.12001,2.326392 -0.27847,2.39507 -1.34678,0.583779 -1.12741,-1.911494 -1.29714,-1.875213 -2.4668,0.527309 -1.20239,2.469817 -1.30673,2.422332 -2.44195,-1.111088 -0.79497,-2.474262 -1.25492,-2.908879 -1.39517,-1.318274 -0.11501,1.305095 -0.92448,2.372893 -1.79872,2.372893 -0.87419,0 -1.67408,-1.067798 -1.7775,-2.372893 -0.15218,-1.918421 -0.42046,-1.766927 -1.40142,0.790965 l -1.21335,3.163857 -0.3465,-3.163857 c -0.34294,-3.13152 -0.35949,-3.136915 -1.61908,-0.527311 -0.69993,1.450097 -1.39415,1.924686 -1.54276,1.05462 -0.19111,-1.119158 -0.66976,-0.964886 -1.63619,0.52731 -0.92023,1.420901 -1.41042,1.592982 -1.50208,0.527309 -0.12102,-1.406167 -0.30725,-1.406167 -1.67685,0 -1.22503,1.257758 -1.56045,1.041646 -1.63681,-1.054619 -0.0938,-2.575107 -0.14684,-2.562818 -2.27945,0.52731 -1.20088,1.740121 -2.24151,2.519861 -2.31251,1.732748 -0.0745,-0.825611 -1.13786,-1.174267 -2.51331,-0.824068 -1.8385,0.46812 -2.42723,-0.290518 -2.57224,-3.314677 -0.18793,-3.918861 -0.18897,-3.91941 -1.40142,-0.757861 -0.86323,2.250926 -1.29984,2.55524 -1.51313,1.054631 -0.29559,-2.079895 -0.31673,-2.080432 -1.52007,-0.03841 -0.96063,1.630248 -1.45655,1.090627 -2.33057,-2.535955 -1.34853,-5.595506 -2.23612,-6.66366 -4.68024,-5.632348 -1.84871,0.780071 -2.70735,0.959103 -5.85067,1.219785 -0.87421,0.07258 -1.58946,0.871713 -1.58946,1.776004 0,0.90429 -0.71526,1.350863 -1.58948,0.992377 -0.8742,-0.358486 -1.64593,0.206728 -1.71496,1.256032 -0.0728,1.106813 -0.46206,1.35435 -0.92716,0.589552 -1.10012,-1.808948 -4.57281,-1.653567 -7.57589,0.338984 -2.27065,1.5066 -2.49773,1.5066 -2.49773,0 0,-0.911481 -0.71525,-1.657258 -1.58946,-1.657258 -0.87421,0 -1.58947,-1.189974 -1.58947,-2.64439 0,-2.471177 -0.4684,-2.626603 -7.15173,-2.372893 -3.93346,0.149334 -7.16308,0.746086 -7.17696,1.326127 -0.0138,0.580041 -0.69278,0.354177 -1.50871,-0.501922 -1.21145,-1.271086 -1.77148,-1.077698 -3.05383,1.054608 -1.10719,1.841023 -1.60006,2.06683 -1.67109,0.765577 -0.0554,-1.015068 -0.81603,-1.845573 -1.69022,-1.845573 -0.87422,0 -1.60042,0.830505 -1.61381,1.845573 -0.0208,1.57723 -0.24836,1.61557 -1.56513,0.263666 -1.25835,-1.291949 -1.54525,-1.167637 -1.56514,0.678129 -0.0351,3.267022 -9.43215,5.834926 -9.71956,2.656049 -0.0951,-1.050332 -0.66823,-0.696099 -1.43104,0.884287 -0.69993,1.450107 -1.34389,2.058222 -1.43102,1.351378 -0.0871,-0.706856 -1.23136,-1.012005 -2.54266,-0.67813 -1.37058,0.348964 -2.45156,-0.0011 -2.54264,-0.824069 -0.0871,-0.7871 -0.70565,-0.244656 -1.37447,1.205441 l -1.21603,2.636547 -1.70371,-2.636547 -1.70371,-2.636549 -0.21246,2.636549 c -0.19574,2.429087 -0.31996,2.470581 -1.57853,0.52732 -1.21935,-1.882757 -1.378,-1.904396 -1.47773,-0.201425 -0.0614,1.049304 -0.82697,1.614518 -1.70119,1.256033 -0.90459,-0.370946 -1.65772,0.624678 -1.7479,2.310652 l -0.15839,2.962432 -1.19825,-2.636537 -1.19828,-2.636547 -0.78933,3.163857 -0.78937,3.163858 -0.23814,-2.900203 c -0.13102,-1.59512 -0.95341,-2.900203 -1.82763,-2.900203 -0.90903,0 -1.70692,3.724626 -1.86381,8.700597 l -0.27435,8.700596 -1.04077,-6.855013 c -1.00221,-6.600926 -1.05963,-6.44455 -1.54891,4.218477 l -0.50812,11.073479 -1.91664,-12.128098 -1.91665,-12.128109 -0.51444,8.964251 -0.51447,8.964252 -1.0281,-7.382335 -1.02813,-7.382322 -0.57679,5.800405 c -0.53428,5.372785 -0.65031,5.139548 -1.57402,-3.163857 l -0.99722,-8.96424 -0.55521,8.436942 -0.55518,8.436941 -1.07133,-5.800405 c -1.03209,-5.588087 -1.08079,-5.636336 -1.33038,-1.318273 -0.37247,6.443579 -3.41669,5.53915 -3.54975,-1.05462 -0.082,-4.066319 -0.4745,-4.976577 -1.47774,-3.427512 -1.36603,2.10925 -1.36603,2.10925 -1.54945,0 -0.14615,-1.680909 -0.62679,-1.46675 -2.36682,1.054619 l -2.18341,3.163858 -0.12912,-3.921718 c -0.17061,-5.180585 -4.20193,-4.345292 -6.51307,1.349481 -1.18143,2.91113 -2.31489,3.896615 -3.9909,3.469886 -1.28747,-0.327794 -2.44237,-1.613032 -2.56641,-2.856068 -0.12413,-1.243035 -0.73786,-0.361744 -1.36394,1.958419 l -1.13836,4.218464 -0.47529,-4.745774 -0.47525,-4.745775 -1.09006,5.273085 -1.09003,5.273095 -0.47526,-5.273095 -0.47528,-5.273085 -1.13835,4.218477 -1.13836,4.218465 -0.47526,-5.273084 -0.47528,-5.273096 -1.09004,5.273096 -1.09004,5.273084 -0.24972,-6.001808 c -0.28772,-6.915162 -2.93147,-9.140881 -3.85825,-3.248183 l -0.62546,3.976907 -0.26721,-4.482143 c -0.31164,-5.228001 -3.34713,-6.103771 -3.65536,-1.054608 l -0.20925,3.427501 -1.17098,-3.691156 c -0.71742,-2.261396 -1.31342,-2.874152 -1.53868,-1.581917 -0.31794,1.823957 -0.53978,1.752639 -1.64027,-0.52732 -1.18465,-2.454362 -1.28354,-2.476893 -1.43103,-0.325897 -0.32767,4.778696 -3.34035,3.550875 -3.57607,-1.457435 l -0.23875,-5.071682 -1.11201,4.745775 c -0.8661,3.696242 -1.17018,4.046086 -1.37508,1.581928 -0.20437,-2.457722 -0.60696,-2.81079 -1.80385,-1.581928 -1.0272,1.054619 -1.54891,1.1425 -1.56515,0.263666 -0.0138,-0.725053 -1.09722,-1.318285 -2.40853,-1.318285 -1.31131,0 -2.3842,-0.711863 -2.3842,-1.581918 0,-2.5542 -3.16071,-1.81168 -3.36698,0.790953 -0.15219,1.918422 -0.42046,1.766927 -1.40142,-0.790953 l -1.21335,-3.163869 -0.29978,3.691179 c -0.2426,2.987215 -0.54072,3.2889 -1.56328,1.581917 -1.26349,-2.109227 -1.26349,-2.109227 -2.0881,0 -0.55283,1.414077 -0.93759,0.892711 -1.16742,-1.581917 -0.31919,-3.436657 -0.43057,-3.50937 -1.6154,-1.054619 l -1.27261,2.636536 -0.25919,-2.636536 c -0.25894,-2.634193 -0.26046,-2.634433 -1.69667,-0.263666 -1.70674,2.817317 -4.67239,3.141052 -4.8306,0.527309 -0.0914,-1.510612 -0.3078,-1.558461 -1.19211,-0.263643 -1.23464,1.807815 -2.13372,1.979028 -13.01196,2.477864 -7.1352,0.327198 -7.95275,0.140565 -8.0952,-1.847928 -0.13704,-1.912534 -0.30679,-1.855048 -1.25456,0.424683 -0.8471,2.037521 -2.30933,2.714278 -6.43597,2.978722 -2.93693,0.188199 -7.02157,1.073286 -9.07698,1.966866 -3.02386,1.314616 -3.74177,1.349949 -3.76147,0.185135 -0.0189,-1.121182 -0.3651,-1.089701 -1.56513,0.142361 -1.36959,1.406155 -1.54911,1.406155 -1.61567,0 -0.0589,-1.244842 -0.54829,-1.167363 -2.29659,0.363653 -2.06032,1.804215 -2.26909,1.689288 -2.87402,-1.58194 -0.6361,-3.439812 -0.66141,-3.422643 -1.0184,0.690989 -0.29468,3.395642 -0.63252,3.807054 -1.73211,2.109227 -1.2617,-1.948119 -1.38668,-1.907836 -1.63619,0.527309 l -0.27017,2.636537 -1.27259,-2.636537 c -1.22087,-2.529405 -1.27903,-2.540128 -1.43103,-0.263666 -0.0871,1.305106 -0.87371,2.372893 -1.7479,2.372893 -0.8742,0 -1.64593,-1.067787 -1.71495,-2.372893 -0.11088,-2.096698 -0.31829,-2.021437 -1.78187,0.646649 -1.24256,2.26511 -1.99937,2.660347 -3.02913,1.581939 -1.07428,-1.125067 -1.378,-1.036362 -1.39706,0.407972 -0.0138,1.015067 -0.73958,1.845571 -1.61381,1.845571 -0.87419,0 -1.58946,-0.711861 -1.58946,-1.581928 0,-3.508147 -3.19731,-1.301391 -3.43801,2.372893 -0.21494,3.281059 -0.44158,2.966628 -1.33039,-1.845584 -0.58922,-3.190205 -1.1879,-4.54803 -1.33037,-3.01737 -0.17924,1.925212 -1.09961,2.737872 -2.98602,2.636537 -1.81675,-0.09751 -3.08028,0.909526 -3.7856,3.017393 l -1.0587,3.163845 -0.39731,-3.691155 -0.39728,-3.691167 -1.17099,3.691167 c -1.16485,3.671803 -1.17222,3.67457 -1.40456,0.52731 -0.12844,-1.740121 -0.89943,-3.862437 -1.71322,-4.716237 -1.67268,-1.754937 -2.48842,-0.84141 -3.74042,4.188927 l -0.65623,2.636536 -0.21646,-2.753954 c -0.18285,-2.326461 -0.8196,-2.677449 -4.10198,-2.261121 -2.95283,0.374534 -4.03639,1.288747 -4.51402,3.808573 -0.47448,2.503114 -0.74937,2.023404 -1.12161,-1.957343 l -0.49311,-5.273096 -1.112,4.745774 -1.11201,4.745786 -0.48845,-4.745786 -0.48844,-4.745774 -1.09004,5.273096 -1.09005,5.273084 -0.36143,-5.800406 c -0.26862,-4.310827 -0.71223,-5.258738 -1.72747,-3.691155 -1.36602,2.109227 -1.36602,2.109227 -1.50209,0 -0.1045,-1.619948 -0.45789,-1.772094 -1.52346,-0.655851 -2.09138,2.19081 -4.92177,0.40948 -4.92177,-3.097546 0,-1.705897 -0.71527,-3.101627 -1.58947,-3.101627 -0.87421,0 -1.61222,-1.0678 -1.64003,-2.372893 -0.05,-2.342442 -0.0812,-2.345894 -2.44696,-0.268788 -1.88226,1.652675 -2.67665,1.803243 -3.7026,0.701815 -0.98369,-1.05606 -1.5201,-0.859516 -2.17262,0.796097 -1.229,3.118258 -3.78748,2.723137 -4.83329,-0.74643 l -0.88767,-2.944829 -13.17848,0.751436 c -7.24818,0.413298 -13.64379,0.560642 -14.21248,0.327428 -0.5687,-0.233191 -1.94514,1.73523 -3.05875,4.374303 -1.19691,2.836407 -2.49917,4.288983 -3.18502,3.552659 -0.85921,-0.922421 -1.38382,-0.872604 -2.02191,0.191994 -0.60078,1.002322 -0.89965,0.878788 -0.98714,-0.407971 -0.16562,-2.434688 -1.50551,-2.328552 -5.0747,0.401981 -2.81519,2.153682 -2.98524,2.164701 -4.07118,0.263655 -0.62329,-1.091142 -2.06737,-2.611034 -3.20905,-3.377513 -1.7181,-1.153474 -2.07577,-1.097325 -2.07577,0.325895 0,0.945717 -0.71526,1.426194 -1.58946,1.067708 -0.88644,-0.363493 -1.58946,0.438229 -1.58946,1.812617 0,1.355424 -1.43054,3.277104 -3.17896,4.270397 -2.12093,1.204913 -3.18703,3.125642 -3.20326,5.771118 -0.0175,2.841883 -0.44086,3.528208 -1.49468,2.422721 -1.03299,-1.083597 -1.6475,0.171224 -2.06585,4.218477 -0.49997,4.836833 -0.64266,4.437801 -0.88953,-2.487741 -0.24977,-7.007753 -0.62352,-8.029976 -2.48442,-6.795262 -1.20473,0.799343 -2.69028,2.963393 -3.30122,4.80901 -1.09696,3.31382 -4.04517,5.728378 -4.04517,3.312974 0,-2.593636 -4.76864,1.382916 -4.97765,4.15084 -0.17766,2.352843 -0.38596,2.213969 -1.38023,-0.920099 -0.86683,-2.73242 -1.30436,-0.951913 -1.68447,6.855024 l -0.51342,10.546199 -0.98098,-10.018871 c -0.75704,-7.73188 -1.11141,-8.815192 -1.5524,-4.745786 -0.53151,4.904483 -0.61504,4.996639 -1.19493,1.318286 -0.34293,-2.17516 -1.29559,-3.954822 -2.11702,-3.954822 -0.86925,0 -1.49352,7.026992 -1.49352,16.811642 0,10.070173 -0.63737,17.073027 -1.58946,17.463447 -1.03905,0.42608 -1.70981,-8.043434 -1.937,-24.457632 l -0.34752,-25.109425 -0.89442,21.619669 c -0.68042,16.447052 -1.05405,19.2226 -1.56164,11.600788 l -0.66723,-10.01887 -0.95006,12.655418 -0.95007,12.655422 -0.55843,-15.81928 c -0.38845,-11.004035 -0.89691,-14.37469 -1.67044,-11.073478 -0.97422,4.157733 -1.18376,4.353739 -1.69107,1.581918 -0.31848,-1.74011 -0.98802,5.141262 -1.48786,15.291965 l -0.90881,18.455815 -0.70043,-23.201601 z"
     id="path4260"
     inkscape:connector-curvature="0" />
</svg>
